<?xml version="1.0" standalone="no"?>
<!DOCTYPE svg PUBLIC "-//W3C//DTD SVG 20010904//EN"
 "http://www.w3.org/TR/2001/REC-SVG-20010904/DTD/svg10.dtd">
<svg version="1.0" xmlns="http://www.w3.org/2000/svg"
 width="3564.000000pt" height="1434.000000pt" viewBox="0 0 3564.000000 1434.000000"
 preserveAspectRatio="xMidYMid meet">

<g transform="translate(0.000000,1434.000000) scale(0.100000,-0.100000)"
fill="#000000" stroke="none">
<path d="M6969 13385 c-88 -20 -196 -65 -266 -112 -35 -23 -663 -646 -1657
-1643 -880 -883 -2161 -2167 -2847 -2855 -685 -687 -1261 -1271 -1278 -1298
-118 -176 -165 -387 -127 -575 34 -167 108 -296 256 -442 570 -567 5573 -5492
5608 -5522 78 -65 233 -136 336 -153 111 -19 161 -19 272 0 120 20 262 90 361
177 40 34 712 693 1492 1463 l1420 1400 -172 6 c-147 6 -184 11 -252 33 -165
53 -311 161 -397 292 l-41 63 -35 -47 c-88 -118 -199 -209 -327 -267 -144 -66
-155 -67 -552 -74 l-362 -6 -630 -620 c-347 -341 -634 -621 -639 -623 -4 -1
-233 219 -507 489 -692 681 -890 874 -975 949 -40 36 -89 85 -109 110 -20 25
-688 688 -1486 1475 -797 786 -1452 1433 -1453 1437 -4 9 4509 4540 4517 4536
4 -2 233 -233 511 -515 l504 -512 806 -4 c794 -3 806 -3 867 -25 136 -47 254
-122 334 -210 l52 -59 47 91 c25 50 52 101 60 114 14 21 7 30 -216 255 -127
127 -728 736 -1334 1352 -607 616 -1131 1142 -1164 1169 -67 54 -193 119 -277
142 -81 22 -260 27 -340 9z"/>
<path d="M10890 10311 c-114 -36 -208 -132 -230 -234 -21 -101 -582 -5481
-576 -5535 6 -62 42 -131 89 -166 70 -53 92 -56 458 -56 322 0 341 1 396 22
74 27 153 101 183 170 19 45 57 380 312 2807 321 3053 302 2816 235 2903 -18
22 -54 53 -82 67 l-50 26 -355 2 c-195 1 -366 -2 -380 -6z"/>
<path d="M33894 10049 c-67 -26 -132 -84 -168 -149 l-29 -53 -274 -2596 c-150
-1428 -274 -2627 -274 -2666 -2 -115 45 -193 146 -241 49 -23 54 -24 367 -24
301 0 320 1 375 22 106 39 190 142 207 253 15 95 546 5189 546 5232 -1 92 -57
177 -145 219 -49 24 -54 24 -375 23 -299 0 -329 -2 -376 -20z"/>
<path d="M6634 10039 c-70 -27 -137 -88 -170 -155 -26 -54 -33 -115 -300
-2652 -151 -1428 -274 -2625 -274 -2660 0 -34 6 -77 14 -96 19 -46 72 -104
120 -129 l41 -22 1482 -3 c1446 -2 1484 -2 1538 17 97 34 180 120 205 211 16
60 200 1847 200 1944 0 137 -14 201 -90 407 -78 211 -82 239 -51 362 23 87 40
124 123 259 70 115 130 257 164 388 32 129 217 1883 205 1948 -13 64 -59 132
-115 167 l-49 30 -1496 2 c-1470 2 -1497 2 -1547 -18z m1876 -870 c60 -27 88
-54 116 -114 17 -36 24 -68 24 -115 0 -100 -88 -928 -105 -985 -22 -75 -79
-142 -155 -184 l-65 -36 -385 -3 c-431 -3 -436 -3 -513 67 -57 51 -79 106 -78
194 1 40 23 275 50 522 44 412 50 454 74 500 33 65 88 118 157 149 l55 26 390
0 c371 0 392 -1 435 -21z m-250 -2330 c84 -38 136 -108 146 -197 8 -69 -112
-1185 -134 -1246 -22 -63 -85 -134 -154 -171 l-53 -30 -385 -3 c-448 -4 -450
-3 -525 72 -54 55 -75 103 -75 176 0 23 27 299 60 614 53 499 64 577 84 622
31 67 85 120 160 155 l61 29 385 0 c366 0 387 -1 430 -21z"/>
<path d="M21314 10039 c-67 -25 -132 -84 -168 -149 -28 -51 -29 -61 -173
-1422 -141 -1346 -144 -1371 -128 -1424 18 -63 69 -125 129 -157 l41 -22 950
-5 950 -5 45 -25 c58 -33 106 -97 120 -162 11 -47 5 -123 -50 -643 -56 -535
-64 -595 -87 -647 -28 -64 -86 -123 -155 -160 l-43 -23 -950 -5 -950 -5 -56
-26 c-66 -31 -129 -90 -160 -151 -24 -47 -58 -290 -59 -426 0 -112 41 -185
135 -235 l40 -22 1500 0 1500 0 48 22 c68 32 140 108 165 174 16 44 49 330
172 1499 158 1510 166 1603 130 1675 l-15 30 -1020 5 -1020 5 -40 22 c-90 48
-138 128 -137 228 0 101 91 937 107 992 20 65 95 151 162 184 l48 24 950 5
950 5 57 27 c70 33 133 95 163 162 31 66 67 384 54 467 -11 72 -54 137 -113
174 l-49 30 -1496 2 c-1470 2 -1497 2 -1547 -18z"/>
<path d="M25529 10046 c-108 -38 -196 -136 -213 -236 -10 -54 -556 -5261 -556
-5298 0 -44 20 -81 69 -125 79 -72 -22 -68 1632 -65 l1484 3 64 35 c74 40 132
106 154 177 17 51 47 312 47 401 0 95 -49 175 -133 220 l-52 27 -945 5 c-1046
6 -980 1 -1049 71 -48 48 -71 103 -71 174 0 100 358 3485 375 3542 20 65 96
152 163 185 l47 23 945 5 c938 5 945 5 997 26 87 36 158 108 187 192 18 49 46
296 46 396 0 117 -53 199 -155 242 -29 12 -244 14 -1517 14 -1186 -1 -1490 -3
-1519 -14z"/>
<path d="M29685 10031 c-71 -34 -136 -98 -164 -161 -16 -37 -45 -292 -162
-1400 -100 -957 -140 -1369 -135 -1402 10 -69 60 -137 126 -173 l55 -30 950
-5 c791 -4 954 -7 975 -19 98 -55 140 -126 140 -235 0 -39 -27 -321 -59 -626
-52 -488 -61 -561 -82 -605 -30 -63 -96 -130 -157 -158 -47 -22 -48 -22 -997
-27 l-950 -5 -56 -28 c-66 -32 -132 -100 -160 -162 -13 -30 -26 -106 -40 -243
-20 -189 -20 -202 -5 -256 12 -42 29 -69 60 -100 81 -82 -44 -76 1607 -76
l1468 0 58 22 c74 27 153 101 183 171 20 46 42 231 176 1512 85 803 154 1486
154 1517 0 72 -17 154 -37 173 -13 13 -143 15 -1012 15 -1086 0 -1042 -2
-1118 56 -45 34 -83 102 -89 160 -3 29 16 252 45 529 50 465 52 482 82 542 30
63 79 112 149 149 33 18 81 19 985 24 l950 5 62 29 c37 17 80 47 102 71 68 74
81 111 102 294 24 213 24 265 -2 321 -27 60 -64 98 -124 126 l-50 24 -1485 0
-1485 0 -60 -29z"/>
<path d="M12706 9095 c-73 -30 -147 -100 -176 -167 -18 -43 -54 -364 -258
-2299 -234 -2221 -236 -2249 -217 -2263 55 -41 35 -40 1712 -43 1609 -3 1611
-3 1667 17 72 27 148 97 180 165 25 51 37 162 246 2147 121 1151 220 2113 220
2137 0 100 -54 185 -144 227 -51 24 -54 24 -406 24 l-355 0 -61 -29 c-73 -35
-129 -89 -160 -156 -21 -45 -40 -209 -199 -1718 -165 -1576 -177 -1672 -201
-1722 -32 -69 -108 -138 -181 -165 -54 -20 -70 -21 -472 -18 -383 3 -419 4
-451 22 -81 43 -128 113 -137 200 -2 30 67 727 172 1721 110 1040 175 1690
171 1723 -6 62 -42 130 -89 166 -70 53 -92 56 -461 56 -338 0 -341 -1 -400
-25z"/>
<path d="M16935 8991 c-74 -35 -130 -90 -161 -156 -21 -45 -42 -234 -228
-2005 -263 -2500 -241 -2276 -227 -2327 17 -60 68 -123 126 -152 l49 -26 1586
0 1585 0 50 27 c64 33 120 90 151 151 19 37 28 83 44 225 23 204 25 279 8 333
-15 51 -69 114 -122 142 l-41 22 -1005 5 -1006 5 -49 26 c-63 32 -110 93 -125
161 -10 46 -6 110 34 482 51 477 52 482 134 564 23 24 64 53 90 65 l47 22
1005 5 1005 5 55 26 c79 37 125 81 159 152 26 55 32 85 50 257 12 107 57 538
101 957 44 419 80 783 80 809 0 103 -53 188 -144 230 l-51 24 -1570 0 -1570 0
-60 -29z m2000 -905 c60 -27 106 -77 130 -140 15 -38 17 -64 12 -138 -10 -153
-70 -248 -197 -307 l-55 -26 -420 0 -420 0 -45 23 c-63 33 -95 66 -121 126
-19 45 -21 62 -16 149 7 115 29 172 90 236 23 24 69 56 102 72 l60 29 415 0
c414 0 415 0 465 -24z"/>
<path d="M9841 7188 c-10 -19 -11 -34 -3 -55 l9 -28 8 37 c4 20 5 44 3 55 -4
15 -6 14 -17 -9z"/>
</g>
</svg>
